<svg t="1768996390518" class="icon" viewBox="0 0 1024 1024" version="1.1" xmlns="http://www.w3.org/2000/svg" p-id="6429" data-darkreader-inline-fill="" width="32" height="32"><path d="M743.16 759.48H258.09c-55.39 0-100.44-45.06-100.44-100.44V263.51c0-55.39 45.06-100.44 100.44-100.44h485.08c55.39 0 100.44 45.06 100.44 100.44v395.52c0 55.39-45.06 100.45-100.45 100.45zM258.09 227.07c-20.1 0-36.44 16.35-36.44 36.44v395.52c0 20.1 16.35 36.44 36.44 36.44h485.08c20.1 0 36.44-16.35 36.44-36.44V263.51c0-20.1-16.35-36.44-36.44-36.44H258.09zM701.74 870.35H326.78c-17.67 0-32-14.33-32-32s14.33-32 32-32h374.96c17.67 0 32 14.33 32 32s-14.32 32-32 32z" fill="#0782E9" p-id="6430" data-darkreader-inline-fill="" style="--darkreader-inline-fill: var(--darkreader-background-0782e9, #0668ba);"></path><path d="M468.63 536.01c-5.44 0-10.96-1.39-16.01-4.31-15.29-8.86-20.51-28.44-11.65-43.73l63.49-109.61c8.86-15.29 28.44-20.51 43.73-11.65 15.29 8.86 20.51 28.44 11.65 43.73l-63.49 109.61c-5.93 10.23-16.67 15.96-27.72 15.96z" fill="#B7DFFF" p-id="6431" data-darkreader-inline-fill="" style="--darkreader-inline-fill: var(--darkreader-text-b7dfff, #9ad4ff);"></path><path d="M643.89 546.5c-7.64 0-15.31-2.72-21.43-8.24-13.12-11.84-14.16-32.07-2.32-45.2l33.72-37.37-34.51-36.8c-12.09-12.89-11.44-33.14 1.45-45.23s33.14-11.44 45.23 1.45l44.02 46.94c8.41 8.97 13.11 20.68 13.22 32.97a48.747 48.747 0 0 1-12.59 33.22l-43.03 47.69c-6.3 7.01-15.01 10.57-23.76 10.57z m19.48-80.67h0.01-0.01zM367.38 546.5c-8.54 0-17.05-3.39-23.35-10.11l-44.02-46.94c-8.41-8.97-13.11-20.68-13.22-32.97a48.747 48.747 0 0 1 12.59-33.22l43.03-47.7c11.84-13.12 32.07-14.16 45.2-2.32 13.12 11.84 14.16 32.07 2.32 45.2l-33.72 37.37 34.51 36.8c12.09 12.89 11.44 33.14-1.45 45.23a31.91 31.91 0 0 1-21.89 8.66z" fill="#0782E9" p-id="6432" data-darkreader-inline-fill="" style="--darkreader-inline-fill: var(--darkreader-background-0782e9, #0668ba);"></path></svg>